<?xml version="1.0" encoding="UTF-8"?>
<svg xmlns="http://www.w3.org/2000/svg" version="1.1" xmlns:xlink="http://www.w3.org/1999/xlink" viewBox="0 0 4000 4000">
  <defs>
    <style>
      .cls-1, .cls-2, .cls-3, .cls-4, .cls-5, .cls-6, .cls-7, .cls-8, .cls-9, .cls-10, .cls-11, .cls-12, .cls-13, .cls-14, .cls-15, .cls-16 {
        stroke: #fff;
        stroke-miterlimit: 10;
      }

      .cls-1, .cls-2, .cls-5, .cls-8, .cls-9, .cls-10, .cls-12, .cls-14, .cls-16 {
        fill-rule: evenodd;
      }

      .cls-1, .cls-8, .cls-10, .cls-12, .cls-14 {
        opacity: .3;
      }

      .cls-1, .cls-9 {
        fill: #8a0028;
      }

      .cls-2, .cls-4, .cls-6 {
        fill: none;
      }

      .cls-3 {
        fill: url(#linear-gradient-3);
      }

      .cls-5, .cls-9, .cls-16 {
        opacity: .3;
      }

      .cls-5, .cls-10, .cls-13 {
        fill: #fff;
      }

      .cls-17 {
        clip-path: url(#clippath-1);
      }

      .cls-6 {
        clip-rule: evenodd;
      }

      .cls-7 {
        fill: url(#linear-gradient-4);
      }

      .cls-18 {
        clip-path: url(#clippath-3);
      }

      .cls-8 {
        fill: #3e005d;
      }

      .cls-11 {
        fill: url(#linear-gradient);
      }

      .cls-12 {
        fill: #1e003d;
      }

      .cls-19 {
        clip-path: url(#clippath-2);
      }

      .cls-13 {
        display: none;
      }

      .cls-14 {
        fill: #005b50;
      }

      .cls-15 {
        fill: url(#linear-gradient-2);
      }

      .cls-16 {
        fill: #ff0;
      }

      .cls-20 {
        clip-path: url(#clippath);
      }
    </style>
    <clipPath id="clippath">
      <path class="cls-6" d="M1838.3,2013.4c243.4,0,440.7,195.6,440.7,436.9s-197.3,436.9-440.7,436.9-440.7-195.6-440.7-436.9,197.3-436.9,440.7-436.9M1838.3,1886.8c313.9,0,568.3,252.3,568.3,563.5s-254.5,563.5-568.3,563.5-568.3-252.3-568.3-563.5,254.5-563.5,568.3-563.5Z"/>
    </clipPath>
    <linearGradient id="linear-gradient" x1="1785.2" y1="1375.1" x2="1886" y2="3414.6" gradientUnits="userSpaceOnUse">
      <stop offset="0" stop-color="#ecf955"/>
      <stop offset="1" stop-color="#1a85f8"/>
    </linearGradient>
    <clipPath id="clippath-1">
      <path class="cls-6" d="M1826.7,1872.7l-120.6-28.9-457.9,1257.8s165.3,11.7,306.9-234.1c141.7-245.8,342.3-877.8,342.3-877.8l-70.8-117Z"/>
    </clipPath>
    <linearGradient id="linear-gradient-2" x1="2116" y1="1644.2" x2="881.1" y2="3541.4" gradientUnits="userSpaceOnUse">
      <stop offset="0" stop-color="#f0f"/>
      <stop offset="1" stop-color="aqua"/>
    </linearGradient>
    <clipPath id="clippath-2">
      <path class="cls-6" d="M1549.8,2538.8l1080.1-260.5s82.6,280.9-188.9,362.8c-271.5,81.9-1404.8,257.5-1404.8,257.5,0,0-10.3-58.1,30.4-128.1,93.2-160,316.4-191.5,483.2-231.7"/>
    </clipPath>
    <linearGradient id="linear-gradient-3" x1="3553.9" y1="2343.4" x2="125.2" y2="2842.1" gradientUnits="userSpaceOnUse">
      <stop offset="0" stop-color="#f0f"/>
      <stop offset=".5" stop-color="#ff7a85"/>
      <stop offset="1" stop-color="#ff0"/>
    </linearGradient>
    <clipPath id="clippath-3">
      <path class="cls-6" d="M1814.9,1545l566.6,1556.6s-165.3,11.7-306.9-234.1c-141.7-245.8-418.6-886.1-418.6-886.1l158.9-436.4Z"/>
    </clipPath>
    <linearGradient id="linear-gradient-4" x1="2341.5" y1="3240.8" x2="1702.3" y2="1435.1" xlink:href="#linear-gradient-3"/>
  </defs>
  <!-- Generator: Adobe Illustrator 28.6.0, SVG Export Plug-In . SVG Version: 1.2.0 Build 709)  -->
  <g>
    <g id="Layer_1">
      <g>
        <rect class="cls-13" x="844.6" y="1338.1" width="1987.5" height="1970.5"/>
        <g>
          <g class="cls-20">
            <rect class="cls-11" x="1270" y="1886.8" width="1136.7" height="1127"/>
          </g>
          <path class="cls-2" d="M1838.3,2013.4c243.4,0,440.7,195.6,440.7,436.9s-197.3,436.9-440.7,436.9-440.7-195.6-440.7-436.9,197.3-436.9,440.7-436.9M1838.3,1886.8c313.9,0,568.3,252.3,568.3,563.5s-254.5,563.5-568.3,563.5-568.3-252.3-568.3-563.5,254.5-563.5,568.3-563.5Z"/>
        </g>
        <path class="cls-14" d="M1838.3,1886.8c52.5,0,103.4,7.1,151.7,20.3l40.3,149.8c-58-27.9-123.2-43.5-192-43.5s-187.1,31.3-260,84.2l56.5-173.5c63.2-24.1,131.8-37.3,203.6-37.3"/>
        <path class="cls-14" d="M2387.7,2305.5c12.4,46.2,19,94.7,19,144.8,0,227.4-135.9,423.4-331.6,512.4-22.7-39.1-43.3-79.7-59-112.5,154.8-67.7,262.9-221.3,262.9-399.9s-5.2-76.8-14.9-112.8l123.6-32Z"/>
        <path class="cls-14" d="M1563.2,2943.4c-141.6-77.8-246.1-213.9-280.8-375.5,36.8-7.5,83.5-17.1,125-26.1,27,125.4,108.2,230.9,218.1,291.1-13.6,24-39.7,70.1-62.4,110.5"/>
        <path class="cls-14" d="M1838.3,2013.4c243.4,0,440.7,195.6,440.7,436.9s-197.3,436.9-440.7,436.9-440.7-195.6-440.7-436.9,197.3-436.9,440.7-436.9M1838.3,1962.3c271.9,0,492.2,218.5,492.2,488s-220.4,488-492.2,488-492.2-218.5-492.2-488,220.4-488,492.2-488Z"/>
        <g>
          <g class="cls-17">
            <rect class="cls-15" x="1248.3" y="1843.8" width="649.3" height="1269.5"/>
          </g>
          <path class="cls-2" d="M1826.7,1872.7l-120.6-28.9-457.9,1257.8s165.3,11.7,306.9-234.1c141.7-245.8,342.3-877.8,342.3-877.8l-70.8-117Z"/>
        </g>
        <path class="cls-8" d="M1455.4,2532.7l-134.1,368.3,225.1-18.6c2.9-4.8,5.9-9.8,8.8-14.8,56.6-98.2,122.6-258,181.5-414.6l-281.3,79.7Z"/>
        <path class="cls-12" d="M1826.7,1872.7l-120.6-28.9-68.1,187c44.4,107,89.8,213.9,136.2,320.2,70.5-195.1,123.3-361.2,123.3-361.2l-70.8-117Z"/>
        <g>
          <g class="cls-19">
            <rect class="cls-3" x="1025.8" y="2278.3" width="1686.7" height="620.3"/>
          </g>
          <path class="cls-2" d="M1549.8,2538.8l1080.1-260.5s82.6,280.9-188.9,362.8c-271.5,81.9-1404.8,257.5-1404.8,257.5,0,0-10.3-58.1,30.4-128.1,93.2-160,316.4-191.5,483.2-231.7"/>
        </g>
        <path class="cls-1" d="M1827.5,2471.8l323.6-78.1,101,292.9c-86.7,18.3-189.8,38.2-298.9,58.2-4.5-9.4-9-18.8-13.5-28.1-34.1-71.6-67.1-143.8-99.4-216.2-4.3-9.6-8.5-19.1-12.8-28.7"/>
        <g>
          <g class="cls-18">
            <rect class="cls-7" x="1656.1" y="1545" width="725.5" height="1568.3"/>
          </g>
          <path class="cls-2" d="M1814.9,1545l566.6,1556.6s-165.3,11.7-306.9-234.1c-141.7-245.8-418.6-886.1-418.6-886.1l158.9-436.4Z"/>
        </g>
        <path class="cls-16" d="M1893.9,2618.9c-18.1-39.4-36-78.9-53.6-118.4-4.3-9.6-8.5-19.1-12.8-28.7l-107.8,26-169.9,41c-33.4,8-69,15.7-105.4,24.2-145.5,33.8-303.2,79.6-377.8,207.5-40.8,70-30.4,128.1-30.4,128.1,0,0,22.3-130.7,355.6-191.1,7.1-1.3,14.4-2.5,21.8-3.8,76-12.6,158-26.7,240-41.3,82.3-14.6,164.5-29.5,240.4-43.5"/>
        <path class="cls-5" d="M1652.5,2514l-102.7,24.8c-33.4,8-69,15.7-105.4,24.2-145.5,33.8-303.2,79.6-377.8,207.5-40.8,70-30.4,128.1-30.4,128.1,0,0,22.3-130.7,355.6-191.1,7.1-1.3,14.4-2.5,21.8-3.8,76-12.6,158-26.7,240-41.3,51.5-9.1,103-18.4,153-27.5,0,0-251.3,33.7-393,45.4-141.7,11.7-118.1-46.8-70.8-70.2,47.2-23.4,165.3-23.4,259.7-11.7,0,0-53.4-40,50-84.4"/>
        <path class="cls-9" d="M2252.1,2686.6h0c79.6-16.8,145.3-32.4,188.9-45.5,271.5-81.9,188.9-362.8,188.9-362.8-11.4,218.3-378.2,273.3-378.2,273.3,0,0-15.6,3-43.3,8.3-6.8,1.3-14.3,2.7-22.5,4.3l46.1,126.7c6.8-1.4,13.5-2.8,20.1-4.2"/>
        <path class="cls-9" d="M1893.9,2618.9c-75.9,14-158.1,28.9-240.4,43.5-81.9,14.5-163.9,28.7-240,41.3-7.4,1.2-14.7,2.5-21.8,3.8-159.7,28.9-248,74-296.7,113.2,19.3-14.6,94.1-61.7,289.4-93.2,27-4.4,56.3-8.4,88.1-12.1,62.3-7.1,117.8-14.3,167.3-21.2,122.1-17.1,207.5-33,268.2-44.8,18.3-3.6,34.4-6.7,48.5-9.5-4.8-9.9-9.7-19.9-14.5-29.9-15.7,2.9-31.8,5.9-48.1,8.9"/>
        <path class="cls-12" d="M1774.3,2351h0c7-19.4,13.8-38.5,20.5-57.2-24.1-53.3-46.5-103.3-66-147-6.7,16.3-13.6,33.3-20.6,50.9-34.9,88.1-73.1,192.5-111.9,301.4-3.7,10.3-7.4,20.7-11.1,31.1l134.4-32.4c4.2-11,8.4-22.1,12.6-33.1h0c14.5-38.3,28.6-76.5,42-113.7"/>
        <path class="cls-8" d="M1586.5,2809.1c-37,6.3-73.3,12.3-108.5,18.2-9.2,21.1-18.6,40.5-28.1,58.6-96.5,183.6-201.6,215.7-201.6,215.7,0,0,165.3,11.7,306.9-234.1l.3-.5h0c10.1-17.5,20.4-36.9,31-57.9"/>
        <path class="cls-1" d="M2381.6,3101.6c-97.6-90.3-202.4-255.4-276.8-385.3-60.5-105.7-100.9-188.2-100.9-188.2l-42.4-88.6-125.8-262.9-17.3-36.1c5.1,13.9,10.2,27.9,15.3,41.9,33.3,91,67.7,182.9,99.4,263.9,16.6,42.5,32.6,82.1,47.2,116.9,21.8,51.8,48.7,106.7,78.3,161.9,66.8,124.9,146.7,251,208.8,344.5,66.4,35.3,114.4,31.9,114.4,31.9"/>
        <path class="cls-10" d="M1709.3,1835l-3.2,8.8-12.9,35.5,125,261.2h0s17.3,36.1,17.3,36.1l125.8,262.9,42.4,88.6s40.4,82.5,100.9,188.2c74.4,129.9,179.2,295,276.8,385.3l-149.5-410.8-46.1-126.7-59.8-164.4-311.2-854.8-105.6,290Z"/>
        <path class="cls-10" d="M1709.3,1835l-3.2,8.8-12.9,35.5,125,261.2h0s17.3,36.1,17.3,36.1l125.8,262.9,42.4,88.6s10.2,20.7,27.9,54.8c0,0-134.2-288.8-157.8-405.9-23.6-117,35.4-152.2,118.1-23.4,82.6,128.7,262.1,597.7,262.1,597.7h0s-22-60.5-22-60.5l-46.1-126.7-59.8-164.4-311.2-854.8-105.6,290Z"/>
        <rect class="cls-4" x="836.3" y="1329.9" width="2004.1" height="1986.9"/>
      </g>
    </g>
  </g>
</svg>